# xmcd
#
# Track frame offsets:
#   182
#   20132
#   40035
#   58995
#   76110
#   92967
#   108172
#   127582
#   142727
#   161777
#   178442
#   196352
#
# Disc length: 2896 seconds
#
# Revision: 0
# Processed by: cddbd v1.5.1PL0 Copyright (c) Steve Scherf et al.
# Submitted via: uFREEDB ActiveX Control 1.5
#
DISCID=9d0b4e0c
DTITLE=Rick and Renner - Vol 2
DYEAR=1900
DGENRE=Country
TTITLE0=Cara Metade
TTITLE1=Outra Chance Nunca Mais
TTITLE2=Doido De Amor
TTITLE3=Transar Solidão
TTITLE4=Uma Briga Á Toa
TTITLE5=Mais Que Paixão
TTITLE6=Quem Será
TTITLE7=Eu Quero Outra Vez
TTITLE8=Amor Com Você
TTITLE9=Sou Eu
TTITLE10=Sem Se Amar
TTITLE11=Sai Da Minha Vida
EXTD=
EXTT0=
EXTT1=
EXTT2=
EXTT3=
EXTT4=
EXTT5=
EXTT6=
EXTT7=
EXTT8=
EXTT9=
EXTT10=
EXTT11=
PLAYORDER=
